<svg version="1.1" id="Layer_1" xmlns="http://www.w3.org/2000/svg" xmlns:xlink="http://www.w3.org/1999/xlink" x="0px" y="0px"
	 width="100%" viewBox="0 0 1404 1108" enable-background="new 0 0 1404 1108" xml:space="preserve">
<path fill="#000000" opacity="1.000000" stroke="none" 
	d="
M882.000000,1109.000000 
	C588.000000,1109.000000 294.500000,1109.000000 1.000000,1109.000000 
	C1.000000,739.666687 1.000000,370.333344 1.000000,1.000000 
	C469.000000,1.000000 937.000000,1.000000 1405.000000,1.000000 
	C1405.000000,370.333344 1405.000000,739.666687 1405.000000,1109.000000 
	C1230.833374,1109.000000 1056.666626,1109.000000 882.000000,1109.000000 
M801.858032,398.008362 
	C809.254333,395.708618 816.650574,393.408875 824.684570,391.005859 
	C825.442261,390.708679 826.199951,390.411499 827.277100,390.788452 
	C834.867004,388.228729 842.456970,385.669006 850.596924,383.093445 
	C851.078674,383.100555 851.560486,383.107666 852.843811,383.007965 
	C858.911499,381.041687 864.979187,379.075409 871.698792,377.006775 
	C872.132446,376.948944 872.566040,376.891113 873.793579,376.987854 
	C878.908203,375.461456 884.063660,374.056488 889.119751,372.356049 
	C891.548157,371.539368 893.788818,370.164520 896.539917,369.029175 
	C896.539917,369.029175 896.957031,369.113770 897.194580,369.719940 
	C898.167847,369.160767 899.141174,368.601593 900.649536,368.123230 
	C901.113770,368.120392 901.578003,368.117554 902.851257,368.008026 
	C908.686646,366.341156 914.533997,364.715149 920.355103,362.999695 
	C937.931885,357.819763 955.500122,352.610687 973.068481,347.402252 
	C987.007935,343.269623 1001.035095,339.401276 1014.836548,334.849335 
	C1020.815125,332.877502 1028.795776,332.924530 1030.697754,323.828979 
	C1030.836426,323.233643 1030.975098,322.638275 1031.766357,321.753143 
	C1032.455322,319.835297 1033.144409,317.917480 1034.156860,315.326111 
	C1034.769897,314.888977 1035.628662,314.588287 1035.958496,313.994019 
	C1040.017822,306.679047 1044.003906,299.323486 1048.000610,291.973846 
	C1054.140625,280.682983 1060.285645,269.394867 1066.407471,258.094147 
	C1073.611206,244.796249 1080.883423,231.534271 1087.947388,218.162399 
	C1091.900269,210.679886 1095.281616,202.893143 1099.296021,195.445953 
	C1105.020142,184.827469 1111.093628,174.397491 1117.009155,163.882065 
	C1121.888550,155.208542 1126.860352,146.584854 1131.595947,137.833405 
	C1135.870850,129.933395 1139.922241,121.911148 1143.996460,113.904221 
	C1148.191895,105.659225 1152.038818,97.225929 1156.503052,89.131416 
	C1162.310791,78.601387 1168.576904,68.324257 1174.645752,57.938263 
	C1174.247803,57.337105 1173.849854,56.735943 1173.451904,56.134785 
	C1164.982056,59.051750 1156.512329,61.968712 1147.729980,64.216881 
	C1146.119751,64.806442 1144.539673,65.502838 1142.894287,65.968529 
	C1130.746826,69.406662 1118.545288,72.660255 1106.441284,76.244179 
	C1094.199829,79.868835 1082.058594,83.830650 1069.858643,87.597237 
	C1062.905273,89.744057 1055.922729,91.795937 1048.217041,93.992218 
	C1047.130615,94.289970 1046.044189,94.587715 1044.161499,94.992111 
	C1026.857300,100.308250 1009.586731,105.736862 992.239929,110.909821 
	C973.848816,116.394218 955.357483,121.542168 936.960388,127.007019 
	C913.966370,133.837402 891.023743,140.841202 868.054688,147.935577 
	C868.054688,147.935577 867.890137,147.953568 867.201111,147.997116 
	C853.570007,151.985382 839.924194,155.924042 826.312134,159.976273 
	C813.448120,163.805801 800.602539,167.699310 787.782837,171.674500 
	C781.446228,173.639389 775.186279,175.851669 768.277283,177.814896 
	C767.184998,177.932159 766.092651,178.049438 764.232788,178.016907 
	C761.686462,178.935333 759.173950,179.964279 756.588318,180.754059 
	C740.955322,185.529175 725.326843,190.321426 709.655090,194.966751 
	C695.972961,199.022293 682.205627,202.790985 668.532288,206.875137 
	C657.409058,210.197571 646.405334,213.919952 635.281555,217.240234 
	C626.043640,219.997589 616.702942,222.409393 607.417603,225.009186 
	C601.558411,226.649689 595.673950,228.218628 589.879028,230.065262 
	C582.876343,232.296783 575.956360,234.787979 568.339783,237.013016 
	C567.893311,237.064255 567.446777,237.115494 566.231628,237.016998 
	C556.715332,239.917175 547.219299,242.886292 537.678040,245.701813 
	C522.376404,250.217117 507.032471,254.589691 491.742767,259.144623 
	C490.025818,259.656128 488.543854,260.956451 486.253479,261.787170 
	C485.841766,261.682831 485.376770,261.397156 485.026001,261.500214 
	C468.842499,266.254639 452.664886,271.029114 436.495544,275.831512 
	C421.767670,280.205841 407.049438,284.612396 392.328247,289.009094 
	C378.681610,293.084900 365.011566,297.084991 351.401886,301.280792 
	C344.889008,303.288696 338.491943,305.672241 331.714447,307.204041 
	C331.225067,307.138092 330.684692,306.901642 330.253632,307.030579 
	C309.042694,313.373047 287.832062,319.717133 266.659210,326.184784 
	C265.250458,326.615143 264.136566,328.010864 262.280762,328.817444 
	C261.506439,328.840118 260.732117,328.862793 259.157318,328.992126 
	C242.407974,333.853363 225.650986,338.688568 208.923050,343.622406 
	C207.500412,344.041992 206.271729,345.119202 204.317230,345.840546 
	C203.211594,345.949280 202.105972,346.057983 200.232834,346.016937 
	C191.724838,348.678589 183.180908,351.231995 174.721893,354.041107 
	C169.377548,355.815857 164.159943,357.972321 158.459763,359.970642 
	C158.459763,359.970642 158.042389,359.885620 157.708420,359.199585 
	C152.832870,360.615540 147.920441,361.918365 143.095917,363.490845 
	C140.308334,364.399445 137.662537,365.743073 134.317230,366.840546 
	C133.211594,366.949249 132.105957,367.057983 130.230881,367.017059 
	C128.276276,367.680664 126.337257,368.395142 124.364609,368.999908 
	C107.054749,374.306519 89.735359,379.582123 72.435066,384.919617 
	C71.550446,385.192535 70.814705,385.948029 70.009651,386.478821 
	C70.463852,387.021088 70.809921,387.765076 71.388535,388.075317 
	C79.559814,392.456299 87.762688,396.778381 96.156342,401.683594 
	C96.732773,401.803253 97.309196,401.922913 98.166061,402.706207 
	C105.777618,406.748566 113.389175,410.790924 121.726906,414.991180 
	C122.803589,415.698639 123.880272,416.406067 125.241158,417.761261 
	C127.146744,418.545776 129.052322,419.330261 131.156357,420.683594 
	C131.732803,420.803253 132.309235,420.922913 133.164612,421.704559 
	C135.025391,422.880493 136.786163,424.273010 138.767441,425.188049 
	C143.119217,427.197937 147.582550,428.966309 152.430283,430.990814 
	C152.430283,430.990814 152.885284,431.042328 152.996460,431.789490 
	C154.923508,432.968323 156.805405,434.229736 158.785126,435.312256 
	C169.510315,441.177002 180.259674,446.997559 191.726898,452.991180 
	C192.803589,453.698639 193.880264,454.406067 195.245956,455.765350 
	C197.748138,457.169495 200.226746,458.617767 202.756699,459.969971 
	C212.161484,464.996582 221.558121,470.039429 231.007065,474.982056 
	C237.615829,478.438965 244.304779,481.742645 251.156326,485.683624 
	C251.732758,485.803253 252.309189,485.922913 253.160797,486.700043 
	C255.774094,488.077820 258.387390,489.455566 261.726898,490.991211 
	C262.803558,491.698639 263.880249,492.406067 265.251495,493.769928 
	C269.167755,495.457733 273.084045,497.145508 277.645020,499.129211 
	C278.415649,499.790649 279.186310,500.452087 280.241119,501.761261 
	C282.146698,502.545746 284.052307,503.330231 286.156342,504.683594 
	C286.732788,504.803253 287.309235,504.922913 288.164734,505.704681 
	C294.382507,509.130981 300.572815,512.608765 306.836975,515.948059 
	C308.438110,516.801575 310.272888,517.216736 312.645050,518.129211 
	C313.415680,518.790649 314.186310,519.452026 315.241150,520.761230 
	C317.146759,521.545776 319.052338,522.330261 321.156372,523.683655 
	C321.732819,523.803284 322.309265,523.922974 323.165863,524.705933 
	C328.756531,527.796753 334.289520,531.000793 339.978851,533.897888 
	C341.382629,534.612732 343.446747,534.856201 344.950104,534.423218 
	C361.312286,529.711182 377.626770,524.833313 393.947205,519.976746 
	C411.797516,514.664917 429.635559,509.311859 447.488525,504.008911 
	C456.835510,501.232513 466.243011,498.653259 475.548615,495.746216 
	C483.105774,493.385345 490.551697,490.668427 498.746246,488.212677 
	C503.364288,486.856293 507.974884,485.474030 512.601746,484.148499 
	C525.624756,480.417633 538.679199,476.794586 551.675842,472.974701 
	C574.832153,466.168884 597.960022,459.265778 621.090271,452.371643 
	C634.516785,448.369751 647.911316,444.260101 661.345215,440.283234 
	C674.319763,436.442261 687.366150,432.839630 700.303833,428.879883 
	C707.932678,426.544922 715.411316,423.719299 723.270874,421.783783 
	C734.992188,418.260437 746.733765,414.802612 758.427368,411.189636 
	C765.671509,408.951416 772.842896,406.477478 780.596924,404.093414 
	C781.078674,404.100525 781.560486,404.107605 782.830566,404.008118 
	C788.900513,402.044342 794.970398,400.080566 801.858032,398.008362 
M1114.015015,965.739746 
	C1115.706177,969.152466 1117.397339,972.565247 1119.441895,976.691345 
	C1120.472778,973.806519 1121.153076,971.902832 1121.993408,969.227478 
	C1124.653809,961.850403 1127.423584,954.510742 1129.955933,947.089966 
	C1142.012695,911.759644 1153.972046,876.396057 1166.029907,841.066162 
	C1175.969727,811.942627 1185.993896,782.847961 1195.989990,753.743774 
	C1207.648682,719.799011 1219.373535,685.876892 1230.964966,651.909241 
	C1241.058350,622.331116 1250.929321,592.677002 1261.044678,563.106506 
	C1267.888550,543.099548 1275.121704,523.225525 1281.941040,503.210419 
	C1295.377563,463.773682 1308.614868,424.269226 1322.003296,384.816040 
	C1326.920044,370.327393 1332.030640,355.904572 1337.364868,340.553650 
	C1335.352661,341.228729 1334.157104,341.497314 1333.078369,342.011139 
	C1309.317017,353.330017 1285.531982,364.600769 1261.829102,376.041199 
	C1243.308594,384.980225 1224.877686,394.105560 1206.434204,403.203369 
	C1181.901978,415.304718 1157.510498,427.700623 1132.798096,439.421021 
	C1126.678345,442.323486 1123.730591,446.274933 1121.718994,452.471130 
	C1113.356689,478.227966 1104.593872,503.856567 1095.796509,529.469910 
	C1087.989014,552.201660 1079.855591,574.821411 1072.021606,597.544312 
	C1061.733887,627.384399 1051.575317,657.269287 1041.405396,687.149902 
	C1033.195068,711.272888 1024.959229,735.388245 1017.005615,759.596008 
	C1016.136169,762.242249 1016.164490,765.885742 1017.300476,768.369629 
	C1022.849670,780.502930 1028.893188,792.410950 1034.805420,804.377075 
	C1041.850952,818.636963 1048.940796,832.874939 1056.011719,847.122253 
	C1068.729980,872.748047 1081.448242,898.373840 1094.014893,924.741028 
	C1100.306763,937.176208 1106.598633,949.611389 1112.994629,962.708923 
	C1113.385376,963.472473 1113.776001,964.236023 1114.015015,965.739746 
M353.341827,668.993835 
	C352.880493,669.291016 352.419159,669.588196 351.199432,669.991760 
	C348.450684,671.291443 345.701904,672.591125 342.210815,673.996887 
	C321.641724,683.713745 301.008514,693.297729 280.521057,703.183716 
	C258.831970,713.649719 237.259033,724.357544 215.677460,735.044739 
	C197.739212,743.927734 179.862000,752.933899 161.238281,761.994751 
	C159.706543,763.292969 158.174820,764.591125 156.416504,766.081360 
	C161.134018,767.899658 165.091171,769.570496 169.143707,770.963989 
	C204.146454,782.999634 239.154984,795.018738 274.184265,806.976929 
	C313.313446,820.334839 352.471405,833.608521 391.606323,846.949585 
	C410.105988,853.256042 428.576477,859.648132 447.068451,865.977234 
	C477.237091,876.302673 507.410065,886.615540 537.585999,896.919556 
	C554.263489,902.614319 570.964661,908.239990 587.630432,913.968628 
	C610.817322,921.938721 633.969971,930.008667 657.157349,937.977356 
	C692.161621,950.007019 727.172424,962.018066 762.200623,973.977966 
	C801.328796,987.337769 840.477417,1000.637573 879.621277,1013.951538 
	C900.711731,1021.125061 921.820312,1028.245605 942.901672,1035.445801 
	C952.410095,1038.693237 961.871948,1042.077148 971.354919,1045.399048 
	C971.781189,1045.080200 972.207397,1044.761353 972.633667,1044.442505 
	C970.978027,1039.702881 969.757202,1034.753906 967.592407,1030.259521 
	C957.470886,1009.245728 947.102722,988.350525 936.796692,967.425781 
	C923.513062,940.455322 910.203979,913.497437 896.907104,886.533508 
	C888.938171,870.373779 881.032715,854.182068 872.925293,838.092163 
	C871.929321,836.115540 870.167419,833.822144 868.238098,833.128174 
	C850.900696,826.893250 833.434021,821.018799 816.029541,814.968750 
	C796.054688,808.025208 776.139709,800.907959 756.135925,794.049561 
	C719.902161,781.626404 683.638123,769.291077 647.354431,757.014404 
	C627.326294,750.237793 607.182434,743.801147 587.181824,736.945435 
	C565.351257,729.462402 543.670959,721.541260 521.844604,714.045349 
	C486.535370,701.918762 451.167084,689.963867 415.809784,677.977661 
	C402.752838,673.551331 389.196747,670.247742 376.726959,664.552185 
	C367.134521,660.170837 360.858643,663.966736 353.341827,668.993835 
z"/>
<path fill="#FFFFFF" opacity="1.000000" stroke="none" 
	d="
M1031.113770,322.042908 
	C1030.975098,322.638275 1030.836426,323.233643 1030.050293,323.956665 
	C1026.723511,326.154327 1024.326172,328.908356 1021.306702,330.153351 
	C1014.816895,332.829193 1008.069641,334.946136 1001.313782,336.897034 
	C988.640503,340.556671 975.821716,343.719971 963.185791,347.498901 
	C952.626709,350.656708 942.316895,354.648193 931.756531,357.801483 
	C923.571167,360.245636 915.123535,361.803284 906.899048,364.131470 
	C905.052246,364.654266 903.649414,366.745514 902.042236,368.114685 
	C901.578003,368.117554 901.113770,368.120392 900.022827,368.074097 
	C898.583130,368.387909 897.770081,368.750854 896.957031,369.113770 
	C896.957031,369.113770 896.539917,369.029175 895.886108,369.023682 
	C890.301697,370.097565 885.331360,371.026520 880.455566,372.313629 
	C877.609619,373.064880 873.944031,372.810730 872.999695,376.833282 
	C872.566040,376.891113 872.132446,376.948944 871.126465,376.758911 
	C864.646423,377.961304 858.727966,379.370972 852.853516,380.945282 
	C852.420410,381.061340 852.305237,382.363831 852.042236,383.114746 
	C851.560486,383.107666 851.078674,383.100555 850.082275,382.805786 
	C848.280945,382.423035 846.891357,381.964935 845.725098,382.295258 
	C840.485779,383.779205 835.268799,385.372040 830.140442,387.197083 
	C828.891602,387.641479 828.008728,389.114319 826.957581,390.114319 
	C826.199951,390.411499 825.442261,390.708679 824.123596,390.761078 
	C819.063660,391.546326 814.522400,392.424072 810.080200,393.658539 
	C806.983154,394.519196 804.021912,395.868805 800.594666,397.000793 
	C795.603943,398.109436 790.945129,398.990784 786.470642,400.441040 
	C784.775696,400.990417 783.505859,402.851532 782.042236,404.114746 
	C781.560486,404.107605 781.078674,404.100525 780.081360,403.805115 
	C776.728455,404.010010 773.822632,404.260406 771.065308,405.037567 
	C757.520752,408.855194 743.982056,412.703094 730.524658,416.813141 
	C727.816956,417.640076 725.470520,419.649933 722.957520,421.114380 
	C715.411316,423.719299 707.932678,426.544922 700.303833,428.879883 
	C687.366150,432.839630 674.319763,436.442261 661.345215,440.283234 
	C647.911316,444.260101 634.516785,448.369751 621.090271,452.371643 
	C597.960022,459.265778 574.832153,466.168884 551.675842,472.974701 
	C538.679199,476.794586 525.624756,480.417633 512.601746,484.148499 
	C507.974884,485.474030 503.364288,486.856293 498.162262,487.866821 
	C495.995300,487.653809 494.327759,487.510529 492.843384,487.965271 
	C484.509247,490.518463 476.280701,493.432495 467.898804,495.809662 
	C457.145325,498.859528 446.215546,501.292267 435.479401,504.397797 
	C420.018250,508.870026 404.640350,513.635681 389.274109,518.427429 
	C383.316986,520.285034 377.556122,522.780762 371.582001,524.572693 
	C365.768738,526.316345 359.431946,526.717102 353.976990,529.162109 
	C344.882507,533.238403 337.501831,530.822937 329.987701,525.655334 
	C328.129486,524.377502 325.279694,524.541443 322.885712,524.042603 
	C322.309265,523.922974 321.732819,523.803284 321.034851,523.033752 
	C319.662628,519.699402 318.195404,517.582947 314.956940,520.113464 
	C314.186310,519.452026 313.415680,518.790649 312.276855,517.642334 
	C304.935547,511.065948 296.799286,507.283417 287.885681,505.042572 
	C287.309235,504.922913 286.732788,504.803253 286.034790,504.033722 
	C284.662567,500.699432 283.195557,498.582581 279.956940,501.113495 
	C279.186310,500.452087 278.415649,499.790649 277.274475,498.636841 
	C273.916382,496.145966 270.993561,494.034973 267.885559,492.245605 
	C267.277435,491.895508 265.951691,492.791962 264.956940,493.113495 
	C263.880249,492.406067 262.803558,491.698639 261.353912,490.546967 
	C259.687195,485.948639 256.337585,485.893555 252.885635,486.042542 
	C252.309189,485.922913 251.732758,485.803253 251.036896,485.040222 
	C249.547913,483.064606 248.387863,481.355713 246.776016,480.459198 
	C232.656998,472.606354 218.549469,464.720093 204.197678,457.310242 
	C201.576569,455.956970 198.840988,452.235291 194.956955,455.113525 
	C193.880264,454.406067 192.803589,453.698639 191.357056,452.548828 
	C188.856522,450.322754 186.878906,448.299286 184.556274,446.816132 
	C181.671112,444.973663 178.530930,443.516388 175.447418,442.001587 
	C167.943130,438.315063 160.407990,434.691345 152.885284,431.042328 
	C152.885284,431.042328 152.430283,430.990814 152.169861,430.569214 
	C146.667480,424.815765 139.923737,422.621704 132.885666,421.042572 
	C132.309235,420.922913 131.732803,420.803253 131.034821,420.033722 
	C129.662613,416.699371 128.195526,414.582611 124.956947,417.113525 
	C123.880272,416.406067 122.803589,415.698639 121.354782,414.554138 
	C118.648094,412.273376 116.544212,409.953796 113.930191,408.686493 
	C108.730492,406.165588 103.250076,404.223663 97.885628,402.042542 
	C97.309196,401.922913 96.732773,401.803253 96.036911,401.040253 
	C93.960159,398.772614 92.158340,396.895142 90.012810,395.577209 
	C85.669975,392.909546 81.140793,390.545319 75.931679,387.632874 
	C77.619926,386.611847 78.105621,386.170166 78.673332,385.996460 
	C91.839088,381.966858 105.039658,378.048706 118.172829,373.916199 
	C122.811127,372.456726 128.620728,372.998932 131.000320,367.166718 
	C132.105957,367.057983 133.211594,366.949249 134.868591,367.159302 
	C140.912750,366.166107 146.462540,365.046967 151.870773,363.448792 
	C154.085541,362.794250 155.994385,361.104462 158.042389,359.885620 
	C158.042389,359.885620 158.459763,359.970642 159.116089,359.976196 
	C161.429016,359.949127 163.188736,360.272003 164.725647,359.826447 
	C175.191605,356.792175 185.652252,353.723358 196.007385,350.337677 
	C197.921646,349.711792 199.348511,347.595215 201.000336,346.166687 
	C202.105972,346.057983 203.211594,345.949280 204.868622,346.159332 
	C206.047104,346.631165 206.751190,347.052765 207.290146,346.898285 
	C223.739578,342.183929 240.191193,337.474152 256.574921,332.539459 
	C257.945099,332.126770 258.841370,330.140594 259.957794,328.885468 
	C260.732117,328.862793 261.506439,328.840118 263.019714,328.899536 
	C272.929749,326.674713 282.136566,324.499390 291.261566,322.022736 
	C299.858337,319.689423 308.447937,317.273956 316.888336,314.440704 
	C322.087341,312.695557 327.000763,310.099579 332.042419,307.885620 
	C338.491943,305.672241 344.889008,303.288696 351.401886,301.280792 
	C365.011566,297.084991 378.681610,293.084900 392.328247,289.009094 
	C407.049438,284.612396 421.767670,280.205841 436.495544,275.831512 
	C452.664886,271.029114 468.842499,266.254639 485.026001,261.500214 
	C485.376770,261.397156 485.841766,261.682831 486.836731,262.132629 
	C489.002228,262.346130 490.674286,262.499695 492.151733,262.034851 
	C500.331665,259.461060 508.395142,256.497894 516.628235,254.116714 
	C531.035889,249.949783 545.578430,246.246155 559.962891,242.004227 
	C562.558472,241.238815 564.666931,238.821442 567.000305,237.166718 
	C567.446777,237.115494 567.893311,237.064255 568.736694,237.416718 
	C570.123779,237.905289 571.199158,238.286942 572.091675,238.030975 
	C587.907837,233.495102 603.709229,228.907211 619.498047,224.276840 
	C632.278931,220.528625 645.055237,216.763000 657.804382,212.908493 
	C677.274963,207.021835 696.691895,200.955978 716.186401,195.150314 
	C729.655029,191.139252 743.268127,187.607758 756.696045,183.470505 
	C759.721619,182.538284 762.245544,179.977692 765.000366,178.166718 
	C766.092651,178.049438 767.184998,177.932159 768.923035,178.024261 
	C770.358093,178.331650 771.222107,178.690201 771.925598,178.488663 
	C782.467285,175.468414 792.981140,172.351410 803.514709,169.302536 
	C823.676331,163.466904 843.862854,157.715836 863.979980,151.731216 
	C865.521545,151.272629 866.597656,149.249466 867.890137,147.953552 
	C867.890137,147.953568 868.054688,147.935577 868.448792,148.201309 
	C870.938599,148.345306 873.146790,148.607834 875.109985,148.033295 
	C882.422913,145.893143 889.612000,143.329651 896.926758,141.196671 
	C912.921692,136.532547 928.999756,132.151901 944.979675,127.437988 
	C963.227417,122.055092 981.390625,116.386162 999.618774,110.936127 
	C1012.943298,106.952248 1026.346680,103.228470 1039.627930,99.107956 
	C1041.646851,98.481598 1043.192871,96.331017 1044.957764,94.885452 
	C1046.044189,94.587715 1047.130615,94.289970 1048.827393,94.239639 
	C1053.899780,93.684082 1058.452759,93.208298 1062.801880,91.999550 
	C1068.946045,90.291946 1074.887939,87.866005 1081.012451,86.075562 
	C1086.866455,84.364166 1092.886230,83.225212 1098.756714,81.564529 
	C1110.014771,78.379868 1121.287842,75.217499 1132.415161,71.615036 
	C1137.787354,69.875824 1142.843384,67.159554 1148.042480,64.885681 
	C1156.512329,61.968712 1164.982056,59.051750 1173.451904,56.134785 
	C1173.849854,56.735943 1174.247803,57.337105 1174.645752,57.938263 
	C1168.576904,68.324257 1162.310791,78.601387 1156.503052,89.131416 
	C1152.038818,97.225929 1148.191895,105.659225 1143.996460,113.904221 
	C1139.922241,121.911148 1135.870850,129.933395 1131.595947,137.833405 
	C1126.860352,146.584854 1121.888550,155.208542 1117.009155,163.882065 
	C1111.093628,174.397491 1105.020142,184.827469 1099.296021,195.445953 
	C1095.281616,202.893143 1091.900269,210.679886 1087.947388,218.162399 
	C1080.883423,231.534271 1073.611206,244.796249 1066.407471,258.094147 
	C1060.285645,269.394867 1054.140625,280.682983 1048.000610,291.973846 
	C1044.003906,299.323486 1040.017822,306.679047 1035.958496,313.994019 
	C1035.628662,314.588287 1034.769897,314.888977 1033.653076,315.710785 
	C1032.470703,318.077942 1031.792236,320.060425 1031.113770,322.042908 
M955.539673,150.998947 
	C948.465332,153.095413 941.385742,155.174576 934.317444,157.291260 
	C901.901978,166.998566 869.491577,176.722458 837.075745,186.428528 
	C810.500488,194.385757 783.910400,202.293091 757.344849,210.282394 
	C723.407654,220.488663 689.504517,230.807968 655.557373,240.980942 
	C620.840637,251.384537 586.091675,261.680725 551.350647,272.003235 
	C532.134277,277.712921 512.879517,283.294800 493.687653,289.085327 
	C459.759949,299.321899 425.891266,309.754456 391.952637,319.954437 
	C359.392059,329.740234 326.775024,339.338318 294.181000,349.012848 
	C263.586060,358.093964 232.979599,367.136353 202.396576,376.257324 
	C187.952682,380.565063 173.547150,385.001770 159.133911,389.411652 
	C154.445053,390.846283 149.786835,392.381012 144.244385,394.147247 
	C147.852341,395.914642 150.369629,396.995605 152.741699,398.333923 
	C170.803085,408.524200 188.806717,418.817047 206.887299,428.972992 
	C221.457932,437.157379 236.159302,445.109406 250.714783,453.320282 
	C268.081238,463.116791 285.336914,473.109406 302.672943,482.960052 
	C315.526367,490.263641 328.355743,497.616516 341.363586,504.636627 
	C344.884460,506.536743 349.554810,509.212463 352.781219,508.298248 
	C381.627960,500.124573 410.270172,491.228882 438.971375,482.541656 
	C465.212982,474.598907 491.463531,466.685455 517.691101,458.696655 
	C548.980896,449.165924 580.225220,439.485077 611.536194,430.024750 
	C640.856079,421.166016 670.247498,412.544098 699.588318,403.754242 
	C721.552490,397.174286 743.511475,390.574982 765.427368,383.836456 
	C794.238342,374.977875 822.953308,365.804138 851.803772,357.077271 
	C885.571472,346.863037 919.462830,337.058167 953.255798,326.926514 
	C969.226135,322.138397 985.103638,317.038757 1000.992554,311.983795 
	C1003.246704,311.266632 1006.365234,310.591064 1007.326721,308.898285 
	C1017.326721,291.292450 1027.017456,273.509735 1036.689819,255.719391 
	C1043.597412,243.014526 1050.246094,230.168579 1057.187256,217.482391 
	C1070.384521,193.362198 1083.700439,169.306808 1096.984009,145.233994 
	C1101.875977,136.368698 1106.885864,127.567703 1111.708984,118.665390 
	C1114.606201,113.317825 1117.246704,107.831169 1120.354126,101.715141 
	C1116.029907,103.006569 1112.679199,104.003410 1109.330688,105.007889 
	C1075.999146,115.006645 1042.666138,125.000473 1009.337341,135.008820 
	C991.678162,140.311737 974.026611,145.640472 955.539673,150.998947 
z"/>
<path fill="#FFFFFF" opacity="1.000000" stroke="none" 
	d="
M161.957764,761.885437 
	C179.862000,752.933899 197.739212,743.927734 215.677460,735.044739 
	C237.259033,724.357544 258.831970,713.649719 280.521057,703.183716 
	C301.008514,693.297729 321.641724,683.713745 342.804077,674.231323 
	C347.596069,675.453125 350.191895,673.444702 351.957825,669.885376 
	C352.419159,669.588196 352.880493,669.291016 353.856628,669.224304 
	C356.794678,668.691711 359.426086,668.301086 361.597443,667.087402 
	C366.015106,664.618164 370.341309,664.510620 375.020630,666.101135 
	C401.582428,675.129822 428.196960,684.003784 454.740814,693.084656 
	C477.842529,700.987793 500.848511,709.170471 523.942749,717.095825 
	C565.232300,731.265259 606.551575,745.348511 647.867859,759.440063 
	C680.218506,770.473877 712.601685,781.412720 744.936340,792.493103 
	C770.995789,801.423218 796.998535,810.518860 823.037903,819.507874 
	C837.014343,824.332642 851.036926,829.025024 864.978516,833.947632 
	C866.829285,834.601196 869.063904,835.895447 869.870728,837.515442 
	C880.156677,858.168701 890.215454,878.935181 900.329590,899.674011 
	C913.606567,926.898071 926.818420,954.154175 940.179626,981.336853 
	C948.775513,998.824585 957.616272,1016.191833 966.274597,1033.649170 
	C967.467407,1036.054321 968.240051,1038.667725 969.721069,1042.522339 
	C966.528076,1041.572144 964.827759,1041.155640 963.190552,1040.564331 
	C952.119934,1036.565796 941.135132,1032.315796 929.985291,1028.553711 
	C909.718933,1021.715942 889.304443,1015.316345 869.049072,1008.446960 
	C846.555847,1000.818604 824.205627,992.769348 801.730652,985.086182 
	C775.027893,975.957581 748.230713,967.105408 721.526855,957.979797 
	C699.366272,950.406677 677.311096,942.525330 655.157349,934.931824 
	C611.818970,920.077026 568.437622,905.347839 525.087769,890.526550 
	C503.395874,883.110107 481.757080,875.537781 460.052917,868.157593 
	C433.832672,859.241699 407.540253,850.537720 381.332306,841.585999 
	C359.484558,834.123535 337.744904,826.344788 315.900940,818.871155 
	C288.571472,809.520630 261.159119,800.412537 233.829865,791.061523 
	C211.200378,783.318604 188.663651,775.304077 166.020264,767.602661 
	C162.907730,766.544006 161.599792,765.013367 161.957764,761.885437 
M343.383881,697.964172 
	C300.223694,719.253052 257.063477,740.541992 213.117554,762.218506 
	C450.426819,842.696960 686.567749,922.779175 923.362061,1003.082947 
	C919.094666,994.125854 915.239807,985.884094 911.256165,977.705078 
	C903.236938,961.240356 895.054260,944.854797 887.110046,928.354187 
	C876.467529,906.249146 865.673767,884.207092 855.600342,861.842834 
	C851.856201,853.530273 847.144043,847.726379 837.786194,846.247009 
	C834.519531,845.730530 831.431519,844.096619 828.255615,842.990906 
	C807.218018,835.666748 786.207275,828.263794 765.133301,821.045593 
	C731.787720,809.624023 698.402222,798.319153 665.028198,786.980713 
	C642.424866,779.301636 619.788696,771.718506 597.210388,763.966736 
	C573.870911,755.953674 550.581360,747.794983 527.274109,739.688232 
	C506.535889,732.475037 485.827759,725.174500 465.062531,718.039978 
	C433.847717,707.315247 402.606903,696.665405 371.323273,686.143738 
	C369.680847,685.591370 367.326843,686.077637 365.663086,686.851807 
	C358.369781,690.245911 351.208710,693.924133 343.383881,697.964172 
z"/>
<path fill="#FFFFFF" opacity="1.000000" stroke="none" 
	d="
M1094.166626,923.999573 
	C1081.448242,898.373840 1068.729980,872.748047 1056.011719,847.122253 
	C1048.940796,832.874939 1041.850952,818.636963 1034.805420,804.377075 
	C1028.893188,792.410950 1022.849670,780.502930 1017.300476,768.369629 
	C1016.164490,765.885742 1016.136169,762.242249 1017.005615,759.596008 
	C1024.959229,735.388245 1033.195068,711.272888 1041.405396,687.149902 
	C1051.575317,657.269287 1061.733887,627.384399 1072.021606,597.544312 
	C1079.855591,574.821411 1087.989014,552.201660 1095.796509,529.469910 
	C1104.593872,503.856567 1113.356689,478.227966 1121.718994,452.471130 
	C1123.730591,446.274933 1126.678345,442.323486 1132.798096,439.421021 
	C1157.510498,427.700623 1181.901978,415.304718 1206.434204,403.203369 
	C1224.877686,394.105560 1243.308594,384.980225 1261.829102,376.041199 
	C1285.531982,364.600769 1309.317017,353.330017 1333.078369,342.011139 
	C1334.157104,341.497314 1335.352661,341.228729 1337.364868,340.553650 
	C1332.030640,355.904572 1326.920044,370.327393 1322.003296,384.816040 
	C1308.614868,424.269226 1295.377563,463.773682 1281.941040,503.210419 
	C1275.121704,523.225525 1267.888550,543.099548 1261.044678,563.106506 
	C1250.929321,592.677002 1241.058350,622.331116 1230.964966,651.909241 
	C1219.373535,685.876892 1207.648682,719.799011 1195.989990,753.743774 
	C1185.993896,782.847961 1175.969727,811.942627 1166.029907,841.066162 
	C1153.972046,876.396057 1142.012695,911.759644 1129.955933,947.089966 
	C1127.423584,954.510742 1124.653809,961.850403 1121.538940,969.612854 
	C1118.778564,968.331970 1116.472656,966.665771 1114.166748,964.999573 
	C1113.776001,964.236023 1113.385376,963.472473 1113.208374,962.184692 
	C1113.412476,961.046692 1113.609009,960.330994 1113.363037,959.834229 
	C1107.801025,948.599548 1102.214722,937.376587 1096.542480,926.197327 
	C1096.084839,925.295105 1094.973999,924.724304 1094.166626,923.999573 
M1111.503784,547.997009 
	C1104.660400,568.014648 1097.796021,588.025146 1090.979370,608.051941 
	C1083.181519,630.961426 1075.479126,653.903564 1067.638672,676.798401 
	C1058.138306,704.539978 1048.496460,732.233276 1039.067627,759.998962 
	C1038.423462,761.895813 1038.355225,764.554382 1039.189331,766.299500 
	C1047.700439,784.107422 1056.442017,801.805298 1065.143066,819.522217 
	C1075.122192,839.841431 1085.078491,860.171997 1095.135376,880.452637 
	C1101.545776,893.379883 1108.120972,906.225464 1114.957397,919.771362 
	C1115.862915,918.345825 1116.627197,917.523499 1116.965698,916.552612 
	C1122.346802,901.121094 1127.726807,885.688782 1132.999390,870.219910 
	C1140.497070,848.224365 1147.826050,826.171143 1155.375488,804.193542 
	C1163.495850,780.553833 1171.800903,756.977478 1180.001587,733.365295 
	C1187.676025,711.268311 1195.399048,689.187866 1202.958496,667.051514 
	C1214.715088,632.624329 1226.304565,598.140015 1238.052246,563.709717 
	C1248.507202,533.068359 1259.082764,502.468109 1269.601929,471.848724 
	C1279.624146,442.676422 1289.642700,413.502869 1299.896484,383.649841 
	C1287.237793,389.600464 1275.089355,395.257385 1262.987427,401.011749 
	C1239.790771,412.041626 1216.610107,423.105774 1193.442505,434.196411 
	C1177.643799,441.759399 1161.827881,449.290466 1146.156982,457.111084 
	C1144.024414,458.175385 1141.951904,460.565460 1141.110718,462.812988 
	C1136.397705,475.406158 1131.992798,488.117188 1127.632324,500.839233 
	C1122.331421,516.304382 1117.178955,531.820496 1111.503784,547.997009 
z"/>
<path fill="#FFFFFF" opacity="1.000000" stroke="none" 
	d="
M161.598022,761.940063 
	C161.599792,765.013367 162.907730,766.544006 166.020264,767.602661 
	C188.663651,775.304077 211.200378,783.318604 233.829865,791.061523 
	C261.159119,800.412537 288.571472,809.520630 315.900940,818.871155 
	C337.744904,826.344788 359.484558,834.123535 381.332306,841.585999 
	C407.540253,850.537720 433.832672,859.241699 460.052917,868.157593 
	C481.757080,875.537781 503.395874,883.110107 525.087769,890.526550 
	C568.437622,905.347839 611.818970,920.077026 655.157349,934.931824 
	C677.311096,942.525330 699.366272,950.406677 721.526855,957.979797 
	C748.230713,967.105408 775.027893,975.957581 801.730652,985.086182 
	C824.205627,992.769348 846.555847,1000.818604 869.049072,1008.446960 
	C889.304443,1015.316345 909.718933,1021.715942 929.985291,1028.553711 
	C941.135132,1032.315796 952.119934,1036.565796 963.190552,1040.564331 
	C964.827759,1041.155640 966.528076,1041.572144 969.721069,1042.522339 
	C968.240051,1038.667725 967.467407,1036.054321 966.274597,1033.649170 
	C957.616272,1016.191833 948.775513,998.824585 940.179626,981.336853 
	C926.818420,954.154175 913.606567,926.898071 900.329590,899.674011 
	C890.215454,878.935181 880.156677,858.168701 869.870728,837.515442 
	C869.063904,835.895447 866.829285,834.601196 864.978516,833.947632 
	C851.036926,829.025024 837.014343,824.332642 823.037903,819.507874 
	C796.998535,810.518860 770.995789,801.423218 744.936340,792.493103 
	C712.601685,781.412720 680.218506,770.473877 647.867859,759.440063 
	C606.551575,745.348511 565.232300,731.265259 523.942749,717.095825 
	C500.848511,709.170471 477.842529,700.987793 454.740814,693.084656 
	C428.196960,684.003784 401.582428,675.129822 375.020630,666.101135 
	C370.341309,664.510620 366.015106,664.618164 361.597443,667.087402 
	C359.426086,668.301086 356.794678,668.691711 354.162262,669.172852 
	C360.858643,663.966736 367.134521,660.170837 376.726959,664.552185 
	C389.196747,670.247742 402.752838,673.551331 415.809784,677.977661 
	C451.167084,689.963867 486.535370,701.918762 521.844604,714.045349 
	C543.670959,721.541260 565.351257,729.462402 587.181824,736.945435 
	C607.182434,743.801147 627.326294,750.237793 647.354431,757.014404 
	C683.638123,769.291077 719.902161,781.626404 756.135925,794.049561 
	C776.139709,800.907959 796.054688,808.025208 816.029541,814.968750 
	C833.434021,821.018799 850.900696,826.893250 868.238098,833.128174 
	C870.167419,833.822144 871.929321,836.115540 872.925293,838.092163 
	C881.032715,854.182068 888.938171,870.373779 896.907104,886.533508 
	C910.203979,913.497437 923.513062,940.455322 936.796692,967.425781 
	C947.102722,988.350525 957.470886,1009.245728 967.592407,1030.259521 
	C969.757202,1034.753906 970.978027,1039.702881 972.633667,1044.442505 
	C972.207397,1044.761353 971.781189,1045.080200 971.354919,1045.399048 
	C961.871948,1042.077148 952.410095,1038.693237 942.901672,1035.445801 
	C921.820312,1028.245605 900.711731,1021.125061 879.621277,1013.951538 
	C840.477417,1000.637573 801.328796,987.337769 762.200623,973.977966 
	C727.172424,962.018066 692.161621,950.007019 657.157349,937.977356 
	C633.969971,930.008667 610.817322,921.938721 587.630432,913.968628 
	C570.964661,908.239990 554.263489,902.614319 537.585999,896.919556 
	C507.410065,886.615540 477.237091,876.302673 447.068451,865.977234 
	C428.576477,859.648132 410.105988,853.256042 391.606323,846.949585 
	C352.471405,833.608521 313.313446,820.334839 274.184265,806.976929 
	C239.154984,795.018738 204.146454,782.999634 169.143707,770.963989 
	C165.091171,769.570496 161.134018,767.899658 156.416504,766.081360 
	C158.174820,764.591125 159.706543,763.292969 161.598022,761.940063 
z"/>
<path fill="#FFFFFF" opacity="1.000000" stroke="none" 
	d="
M764.616577,178.091812 
	C762.245544,179.977692 759.721619,182.538284 756.696045,183.470505 
	C743.268127,187.607758 729.655029,191.139252 716.186401,195.150314 
	C696.691895,200.955978 677.274963,207.021835 657.804382,212.908493 
	C645.055237,216.763000 632.278931,220.528625 619.498047,224.276840 
	C603.709229,228.907211 587.907837,233.495102 572.091675,238.030975 
	C571.199158,238.286942 570.123779,237.905289 569.067078,237.493591 
	C575.956360,234.787979 582.876343,232.296783 589.879028,230.065262 
	C595.673950,228.218628 601.558411,226.649689 607.417603,225.009186 
	C616.702942,222.409393 626.043640,219.997589 635.281555,217.240234 
	C646.405334,213.919952 657.409058,210.197571 668.532288,206.875137 
	C682.205627,202.790985 695.972961,199.022293 709.655090,194.966751 
	C725.326843,190.321426 740.955322,185.529175 756.588318,180.754059 
	C759.173950,179.964279 761.686462,178.935333 764.616577,178.091812 
z"/>
<path fill="#FFFFFF" opacity="1.000000" stroke="none" 
	d="
M323.025787,524.374268 
	C325.279694,524.541443 328.129486,524.377502 329.987701,525.655334 
	C337.501831,530.822937 344.882507,533.238403 353.976990,529.162109 
	C359.431946,526.717102 365.768738,526.316345 371.582001,524.572693 
	C377.556122,522.780762 383.316986,520.285034 389.274109,518.427429 
	C404.640350,513.635681 420.018250,508.870026 435.479401,504.397797 
	C446.215546,501.292267 457.145325,498.859528 467.898804,495.809662 
	C476.280701,493.432495 484.509247,490.518463 492.843384,487.965271 
	C494.327759,487.510529 495.995300,487.653809 497.812622,487.815186 
	C490.551697,490.668427 483.105774,493.385345 475.548615,495.746216 
	C466.243011,498.653259 456.835510,501.232513 447.488525,504.008911 
	C429.635559,509.311859 411.797516,514.664917 393.947205,519.976746 
	C377.626770,524.833313 361.312286,529.711182 344.950104,534.423218 
	C343.446747,534.856201 341.382629,534.612732 339.978851,533.897888 
	C334.289520,531.000793 328.756531,527.796753 323.025787,524.374268 
z"/>
<path fill="#FFFFFF" opacity="1.000000" stroke="none" 
	d="
M1044.559570,94.938782 
	C1043.192871,96.331017 1041.646851,98.481598 1039.627930,99.107956 
	C1026.346680,103.228470 1012.943298,106.952248 999.618774,110.936127 
	C981.390625,116.386162 963.227417,122.055092 944.979675,127.437988 
	C928.999756,132.151901 912.921692,136.532547 896.926758,141.196671 
	C889.612000,143.329651 882.422913,145.893143 875.109985,148.033295 
	C873.146790,148.607834 870.938599,148.345306 868.450928,148.118591 
	C891.023743,140.841202 913.966370,133.837402 936.960388,127.007019 
	C955.357483,121.542168 973.848816,116.394218 992.239929,110.909821 
	C1009.586731,105.736862 1026.857300,100.308250 1044.559570,94.938782 
z"/>
<path fill="#FFFFFF" opacity="1.000000" stroke="none" 
	d="
M902.446777,368.061340 
	C903.649414,366.745514 905.052246,364.654266 906.899048,364.131470 
	C915.123535,361.803284 923.571167,360.245636 931.756531,357.801483 
	C942.316895,354.648193 952.626709,350.656708 963.185791,347.498901 
	C975.821716,343.719971 988.640503,340.556671 1001.313782,336.897034 
	C1008.069641,334.946136 1014.816895,332.829193 1021.306702,330.153351 
	C1024.326172,328.908356 1026.723511,326.154327 1029.758789,324.063232 
	C1028.795776,332.924530 1020.815125,332.877502 1014.836548,334.849335 
	C1001.035095,339.401276 987.007935,343.269623 973.068481,347.402252 
	C955.500122,352.610687 937.931885,357.819763 920.355103,362.999695 
	C914.533997,364.715149 908.686646,366.341156 902.446777,368.061340 
z"/>
<path fill="#FFFFFF" opacity="1.000000" stroke="none" 
	d="
M867.545654,147.975342 
	C866.597656,149.249466 865.521545,151.272629 863.979980,151.731216 
	C843.862854,157.715836 823.676331,163.466904 803.514709,169.302536 
	C792.981140,172.351410 782.467285,175.468414 771.925598,178.488663 
	C771.222107,178.690201 770.358093,178.331650 769.230225,178.092819 
	C775.186279,175.851669 781.446228,173.639389 787.782837,171.674500 
	C800.602539,167.699310 813.448120,163.805801 826.312134,159.976273 
	C839.924194,155.924042 853.570007,151.985382 867.545654,147.975342 
z"/>
<path fill="#FFFFFF" opacity="1.000000" stroke="none" 
	d="
M1147.886230,64.551285 
	C1142.843384,67.159554 1137.787354,69.875824 1132.415161,71.615036 
	C1121.287842,75.217499 1110.014771,78.379868 1098.756714,81.564529 
	C1092.886230,83.225212 1086.866455,84.364166 1081.012451,86.075562 
	C1074.887939,87.866005 1068.946045,90.291946 1062.801880,91.999550 
	C1058.452759,93.208298 1053.899780,93.684082 1049.195557,94.188828 
	C1055.922729,91.795937 1062.905273,89.744057 1069.858643,87.597237 
	C1082.058594,83.830650 1094.199829,79.868835 1106.441284,76.244179 
	C1118.545288,72.660255 1130.746826,69.406662 1142.894287,65.968529 
	C1144.539673,65.502838 1146.119751,64.806442 1147.886230,64.551285 
z"/>
<path fill="#FFFFFF" opacity="1.000000" stroke="none" 
	d="
M130.615601,367.091888 
	C128.620728,372.998932 122.811127,372.456726 118.172829,373.916199 
	C105.039658,378.048706 91.839088,381.966858 78.673332,385.996460 
	C78.105621,386.170166 77.619926,386.611847 75.931679,387.632874 
	C81.140793,390.545319 85.669975,392.909546 90.012810,395.577209 
	C92.158340,396.895142 93.960159,398.772614 95.937698,400.755859 
	C87.762688,396.778381 79.559814,392.456299 71.388535,388.075317 
	C70.809921,387.765076 70.463852,387.021088 70.009644,386.478821 
	C70.814705,385.948029 71.550446,385.192535 72.435066,384.919617 
	C89.735359,379.582123 107.054749,374.306519 124.364609,368.999908 
	C126.337257,368.395142 128.276276,367.680664 130.615601,367.091888 
z"/>
<path fill="#FFFFFF" opacity="1.000000" stroke="none" 
	d="
M566.615967,237.091858 
	C564.666931,238.821442 562.558472,241.238815 559.962891,242.004227 
	C545.578430,246.246155 531.035889,249.949783 516.628235,254.116714 
	C508.395142,256.497894 500.331665,259.461060 492.151733,262.034851 
	C490.674286,262.499695 489.002228,262.346130 487.186462,262.184540 
	C488.543854,260.956451 490.025818,259.656128 491.742767,259.144623 
	C507.032471,254.589691 522.376404,250.217117 537.678040,245.701813 
	C547.219299,242.886292 556.715332,239.917175 566.615967,237.091858 
z"/>
<path fill="#FFFFFF" opacity="1.000000" stroke="none" 
	d="
M331.878418,307.544830 
	C327.000763,310.099579 322.087341,312.695557 316.888336,314.440704 
	C308.447937,317.273956 299.858337,319.689423 291.261566,322.022736 
	C282.136566,324.499390 272.929749,326.674713 263.322083,328.969604 
	C264.136566,328.010864 265.250458,326.615143 266.659210,326.184784 
	C287.832062,319.717133 309.042694,313.373047 330.253632,307.030579 
	C330.684692,306.901642 331.225067,307.138092 331.878418,307.544830 
z"/>
<path fill="#FFFFFF" opacity="1.000000" stroke="none" 
	d="
M723.114197,421.449097 
	C725.470520,419.649933 727.816956,417.640076 730.524658,416.813141 
	C743.982056,412.703094 757.520752,408.855194 771.065308,405.037567 
	C773.822632,404.260406 776.728455,404.010010 779.806335,403.813049 
	C772.842896,406.477478 765.671509,408.951416 758.427368,411.189636 
	C746.733765,414.802612 734.992188,418.260437 723.114197,421.449097 
z"/>
<path fill="#FFFFFF" opacity="1.000000" stroke="none" 
	d="
M195.101456,455.439453 
	C198.840988,452.235291 201.576569,455.956970 204.197678,457.310242 
	C218.549469,464.720093 232.656998,472.606354 246.776016,480.459198 
	C248.387863,481.355713 249.547913,483.064606 250.937683,484.755798 
	C244.304779,481.742645 237.615829,478.438965 231.007065,474.982056 
	C221.558121,470.039429 212.161484,464.996582 202.756699,459.969971 
	C200.226746,458.617767 197.748138,457.169495 195.101456,455.439453 
z"/>
<path fill="#FFFFFF" opacity="1.000000" stroke="none" 
	d="
M259.557556,328.938782 
	C258.841370,330.140594 257.945099,332.126770 256.574921,332.539459 
	C240.191193,337.474152 223.739578,342.183929 207.290146,346.898285 
	C206.751190,347.052765 206.047104,346.631165 205.186462,346.184509 
	C206.271729,345.119202 207.500412,344.041992 208.923050,343.622406 
	C225.650986,338.688568 242.407974,333.853363 259.557556,328.938782 
z"/>
<path fill="#FFFFFF" opacity="1.000000" stroke="none" 
	d="
M200.616577,346.091797 
	C199.348511,347.595215 197.921646,349.711792 196.007385,350.337677 
	C185.652252,353.723358 175.191605,356.792175 164.725647,359.826447 
	C163.188736,360.272003 161.429016,359.949127 159.328949,359.969666 
	C164.159943,357.972321 169.377548,355.815857 174.721893,354.041107 
	C183.180908,351.231995 191.724838,348.678589 200.616577,346.091797 
z"/>
<path fill="#FFFFFF" opacity="1.000000" stroke="none" 
	d="
M152.940872,431.415894 
	C160.407990,434.691345 167.943130,438.315063 175.447418,442.001587 
	C178.530930,443.516388 181.671112,444.973663 184.556274,446.816132 
	C186.878906,448.299286 188.856522,450.322754 190.993958,452.469910 
	C180.259674,446.997559 169.510315,441.177002 158.785126,435.312256 
	C156.805405,434.229736 154.923508,432.968323 152.940872,431.415894 
z"/>
<path fill="#FFFFFF" opacity="1.000000" stroke="none" 
	d="
M1094.090820,924.370300 
	C1094.973999,924.724304 1096.084839,925.295105 1096.542480,926.197327 
	C1102.214722,937.376587 1107.801025,948.599548 1113.363037,959.834229 
	C1113.609009,960.330994 1113.412476,961.046692 1113.156250,961.853516 
	C1106.598633,949.611389 1100.306763,937.176208 1094.090820,924.370300 
z"/>
<path fill="#FFFFFF" opacity="1.000000" stroke="none" 
	d="
M157.875412,359.542603 
	C155.994385,361.104462 154.085541,362.794250 151.870773,363.448792 
	C146.462540,365.046967 140.912750,366.166107 135.186432,367.184509 
	C137.662537,365.743073 140.308334,364.399445 143.095917,363.490845 
	C147.920441,361.918365 152.832870,360.615540 157.875412,359.542603 
z"/>
<path fill="#FFFFFF" opacity="1.000000" stroke="none" 
	d="
M873.396606,376.910583 
	C873.944031,372.810730 877.609619,373.064880 880.455566,372.313629 
	C885.331360,371.026520 890.301697,370.097565 895.673401,369.030334 
	C893.788818,370.164520 891.548157,371.539368 889.119751,372.356049 
	C884.063660,374.056488 878.908203,375.461456 873.396606,376.910583 
z"/>
<path fill="#FFFFFF" opacity="1.000000" stroke="none" 
	d="
M827.117310,390.451355 
	C828.008728,389.114319 828.891602,387.641479 830.140442,387.197083 
	C835.268799,385.372040 840.485779,383.779205 845.725098,382.295258 
	C846.891357,381.964935 848.280945,382.423035 849.807251,382.813721 
	C842.456970,385.669006 834.867004,388.228729 827.117310,390.451355 
z"/>
<path fill="#FFFFFF" opacity="1.000000" stroke="none" 
	d="
M98.025848,402.374390 
	C103.250076,404.223663 108.730492,406.165588 113.930191,408.686493 
	C116.544212,409.953796 118.648094,412.273376 120.991699,414.475220 
	C113.389175,410.790924 105.777618,406.748566 98.025848,402.374390 
z"/>
<path fill="#FFFFFF" opacity="1.000000" stroke="none" 
	d="
M288.025208,505.373627 
	C296.799286,507.283417 304.935547,511.065948 311.954468,517.494385 
	C310.272888,517.216736 308.438110,516.801575 306.836975,515.948059 
	C300.572815,512.608765 294.382507,509.130981 288.025208,505.373627 
z"/>
<path fill="#FFFFFF" opacity="1.000000" stroke="none" 
	d="
M801.000000,397.000000 
	C804.021912,395.868805 806.983154,394.519196 810.080200,393.658539 
	C814.522400,392.424072 819.063660,391.546326 823.804749,390.812714 
	C816.650574,393.408875 809.254333,395.708618 801.437256,397.783447 
	C801.010986,397.372345 801.005493,397.186188 801.000000,397.000000 
z"/>
<path fill="#FFFFFF" opacity="1.000000" stroke="none" 
	d="
M852.442993,383.061340 
	C852.305237,382.363831 852.420410,381.061340 852.853516,380.945282 
	C858.727966,379.370972 864.646423,377.961304 870.800476,376.810059 
	C864.979187,379.075409 858.911499,381.041687 852.442993,383.061340 
z"/>
<path fill="#FFFFFF" opacity="1.000000" stroke="none" 
	d="
M133.025146,421.373566 
	C139.923737,422.621704 146.667480,424.815765 151.954880,430.490479 
	C147.582550,428.966309 143.119217,427.197937 138.767441,425.188049 
	C136.786163,424.273010 135.025391,422.880493 133.025146,421.373566 
z"/>
<path fill="#FFFFFF" opacity="1.000000" stroke="none" 
	d="
M800.594666,397.000793 
	C801.005493,397.186188 801.010986,397.372345 801.028442,397.837646 
	C794.970398,400.080566 788.900513,402.044342 782.436401,404.061432 
	C783.505859,402.851532 784.775696,400.990417 786.470642,400.441040 
	C790.945129,398.990784 795.603943,398.109436 800.594666,397.000793 
z"/>
<path fill="#FFFFFF" opacity="1.000000" stroke="none" 
	d="
M265.104218,493.441711 
	C265.951691,492.791962 267.277435,491.895508 267.885559,492.245605 
	C270.993561,494.034973 273.916382,496.145966 276.952148,498.488892 
	C273.084045,497.145508 269.167755,495.457733 265.104218,493.441711 
z"/>
<path fill="#FFFFFF" opacity="1.000000" stroke="none" 
	d="
M1114.090820,965.369629 
	C1116.472656,966.665771 1118.778564,968.331970 1121.458984,969.998657 
	C1121.153076,971.902832 1120.472778,973.806519 1119.441895,976.691345 
	C1117.397339,972.565247 1115.706177,969.152466 1114.090820,965.369629 
z"/>
<path fill="#FFFFFF" opacity="1.000000" stroke="none" 
	d="
M351.578613,669.938599 
	C350.191895,673.444702 347.596069,675.453125 343.175262,674.178345 
	C345.701904,672.591125 348.450684,671.291443 351.578613,669.938599 
z"/>
<path fill="#FFFFFF" opacity="1.000000" stroke="none" 
	d="
M253.023224,486.371277 
	C256.337585,485.893555 259.687195,485.948639 260.990814,490.468018 
	C258.387390,489.455566 255.774094,488.077820 253.023224,486.371277 
z"/>
<path fill="#FFFFFF" opacity="1.000000" stroke="none" 
	d="
M125.099052,417.437378 
	C128.195526,414.582611 129.662613,416.699371 130.935593,419.749298 
	C129.052322,419.330261 127.146744,418.545776 125.099052,417.437378 
z"/>
<path fill="#FFFFFF" opacity="1.000000" stroke="none" 
	d="
M280.099030,501.437378 
	C283.195557,498.582581 284.662567,500.699432 285.935577,503.749298 
	C284.052307,503.330231 282.146698,502.545746 280.099030,501.437378 
z"/>
<path fill="#FFFFFF" opacity="1.000000" stroke="none" 
	d="
M315.099060,520.437378 
	C318.195404,517.582947 319.662628,519.699402 320.935638,522.749329 
	C319.052338,522.330261 317.146759,521.545776 315.099060,520.437378 
z"/>
<path fill="#FFFFFF" opacity="1.000000" stroke="none" 
	d="
M1031.440063,321.898041 
	C1031.792236,320.060425 1032.470703,318.077942 1033.491211,316.047546 
	C1033.144409,317.917480 1032.455322,319.835297 1031.440063,321.898041 
z"/>
<path fill="#FFFFFF" opacity="1.000000" stroke="none" 
	d="
M897.075806,369.416870 
	C897.770081,368.750854 898.583130,368.387909 899.755310,368.033722 
	C899.141174,368.601593 898.167847,369.160767 897.075806,369.416870 
z"/>
<path fill="#000000" opacity="1.000000" stroke="none" 
	d="
M955.955688,150.978241 
	C974.026611,145.640472 991.678162,140.311737 1009.337341,135.008820 
	C1042.666138,125.000473 1075.999146,115.006645 1109.330688,105.007889 
	C1112.679199,104.003410 1116.029907,103.006569 1120.354126,101.715141 
	C1117.246704,107.831169 1114.606201,113.317825 1111.708984,118.665390 
	C1106.885864,127.567703 1101.875977,136.368698 1096.984009,145.233994 
	C1083.700439,169.306808 1070.384521,193.362198 1057.187256,217.482391 
	C1050.246094,230.168579 1043.597412,243.014526 1036.689819,255.719391 
	C1027.017456,273.509735 1017.326721,291.292450 1007.326721,308.898285 
	C1006.365234,310.591064 1003.246704,311.266632 1000.992554,311.983795 
	C985.103638,317.038757 969.226135,322.138397 953.255798,326.926514 
	C919.462830,337.058167 885.571472,346.863037 851.803772,357.077271 
	C822.953308,365.804138 794.238342,374.977875 765.427368,383.836456 
	C743.511475,390.574982 721.552490,397.174286 699.588318,403.754242 
	C670.247498,412.544098 640.856079,421.166016 611.536194,430.024750 
	C580.225220,439.485077 548.980896,449.165924 517.691101,458.696655 
	C491.463531,466.685455 465.212982,474.598907 438.971375,482.541656 
	C410.270172,491.228882 381.627960,500.124573 352.781219,508.298248 
	C349.554810,509.212463 344.884460,506.536743 341.363586,504.636627 
	C328.355743,497.616516 315.526367,490.263641 302.672943,482.960052 
	C285.336914,473.109406 268.081238,463.116791 250.714783,453.320282 
	C236.159302,445.109406 221.457932,437.157379 206.887299,428.972992 
	C188.806717,418.817047 170.803085,408.524200 152.741699,398.333923 
	C150.369629,396.995605 147.852341,395.914642 144.244385,394.147247 
	C149.786835,392.381012 154.445053,390.846283 159.133911,389.411652 
	C173.547150,385.001770 187.952682,380.565063 202.396576,376.257324 
	C232.979599,367.136353 263.586060,358.093964 294.181000,349.012848 
	C326.775024,339.338318 359.392059,329.740234 391.952637,319.954437 
	C425.891266,309.754456 459.759949,299.321899 493.687653,289.085327 
	C512.879517,283.294800 532.134277,277.712921 551.350647,272.003235 
	C586.091675,261.680725 620.840637,251.384537 655.557373,240.980942 
	C689.504517,230.807968 723.407654,220.488663 757.344849,210.282394 
	C783.910400,202.293091 810.500488,194.385757 837.075745,186.428528 
	C869.491577,176.722458 901.901978,166.998566 934.317444,157.291260 
	C941.385742,155.174576 948.465332,153.095413 955.955688,150.978241 
z"/>
<path fill="#000000" opacity="1.000000" stroke="none" 
	d="
M343.691772,697.731812 
	C351.208710,693.924133 358.369781,690.245911 365.663086,686.851807 
	C367.326843,686.077637 369.680847,685.591370 371.323273,686.143738 
	C402.606903,696.665405 433.847717,707.315247 465.062531,718.039978 
	C485.827759,725.174500 506.535889,732.475037 527.274109,739.688232 
	C550.581360,747.794983 573.870911,755.953674 597.210388,763.966736 
	C619.788696,771.718506 642.424866,779.301636 665.028198,786.980713 
	C698.402222,798.319153 731.787720,809.624023 765.133301,821.045593 
	C786.207275,828.263794 807.218018,835.666748 828.255615,842.990906 
	C831.431519,844.096619 834.519531,845.730530 837.786194,846.247009 
	C847.144043,847.726379 851.856201,853.530273 855.600342,861.842834 
	C865.673767,884.207092 876.467529,906.249146 887.110046,928.354187 
	C895.054260,944.854797 903.236938,961.240356 911.256165,977.705078 
	C915.239807,985.884094 919.094666,994.125854 923.362061,1003.082947 
	C686.567749,922.779175 450.426819,842.696960 213.117554,762.218506 
	C257.063477,740.541992 300.223694,719.253052 343.691772,697.731812 
z"/>
<path fill="#000000" opacity="1.000000" stroke="none" 
	d="
M1111.733154,547.655762 
	C1117.178955,531.820496 1122.331421,516.304382 1127.632324,500.839233 
	C1131.992798,488.117188 1136.397705,475.406158 1141.110718,462.812988 
	C1141.951904,460.565460 1144.024414,458.175385 1146.156982,457.111084 
	C1161.827881,449.290466 1177.643799,441.759399 1193.442505,434.196411 
	C1216.610107,423.105774 1239.790771,412.041626 1262.987427,401.011749 
	C1275.089355,395.257385 1287.237793,389.600464 1299.896484,383.649841 
	C1289.642700,413.502869 1279.624146,442.676422 1269.601929,471.848724 
	C1259.082764,502.468109 1248.507202,533.068359 1238.052246,563.709717 
	C1226.304565,598.140015 1214.715088,632.624329 1202.958496,667.051514 
	C1195.399048,689.187866 1187.676025,711.268311 1180.001587,733.365295 
	C1171.800903,756.977478 1163.495850,780.553833 1155.375488,804.193542 
	C1147.826050,826.171143 1140.497070,848.224365 1132.999390,870.219910 
	C1127.726807,885.688782 1122.346802,901.121094 1116.965698,916.552612 
	C1116.627197,917.523499 1115.862915,918.345825 1114.957397,919.771362 
	C1108.120972,906.225464 1101.545776,893.379883 1095.135376,880.452637 
	C1085.078491,860.171997 1075.122192,839.841431 1065.143066,819.522217 
	C1056.442017,801.805298 1047.700439,784.107422 1039.189331,766.299500 
	C1038.355225,764.554382 1038.423462,761.895813 1039.067627,759.998962 
	C1048.496460,732.233276 1058.138306,704.539978 1067.638672,676.798401 
	C1075.479126,653.903564 1083.181519,630.961426 1090.979370,608.051941 
	C1097.796021,588.025146 1104.660400,568.014648 1111.733154,547.655762 
z"/>
</svg>