{
	"asset":{
		"generator":"Khronos glTF Blender I/O v4.3.47",
		"version":"2.0"
	},
	"scene":0,
	"scenes":[
		{
			"name":"Scene",
			"nodes":[
				0
			]
		}
	],
	"nodes":[
		{
			"mesh":0,
			"name":"Cube.001",
			"rotation":[
				0,
				-0.07317981868982315,
				0,
				0.9973187446594238
			],
			"translation":[
				100.08236694335938,
				0.09000015258789062,
				16.030033111572266
			]
		}
	],
	"materials":[
		{
			"doubleSided":true,
			"name":"bake.001",
			"pbrMetallicRoughness":{
				"baseColorTexture":{
					"index":0
				},
				"metallicFactor":0,
				"roughnessFactor":0.5
			}
		}
	],
	"meshes":[
		{
			"name":"Cube.359",
			"primitives":[
				{
					"attributes":{
						"POSITION":0,
						"NORMAL":1,
						"TEXCOORD_0":2,
						"TEXCOORD_1":3
					},
					"indices":4,
					"material":0
				}
			]
		}
	],
	"textures":[
		{
			"sampler":0,
			"source":0
		}
	],
	"images":[
		{
			"mimeType":"image/png",
			"name":"bake_2048",
			"uri":"bake_2048.png"
		}
	],
	"accessors":[
		{
			"bufferView":0,
			"componentType":5126,
			"count":81296,
			"max":[
				59.9099235534668,
				13.746286392211914,
				31.843414306640625
			],
			"min":[
				-51.60556411743164,
				-1.3400003910064697,
				-71.34513092041016
			],
			"type":"VEC3"
		},
		{
			"bufferView":1,
			"componentType":5126,
			"count":81296,
			"type":"VEC3"
		},
		{
			"bufferView":2,
			"componentType":5126,
			"count":81296,
			"type":"VEC2"
		},
		{
			"bufferView":3,
			"componentType":5126,
			"count":81296,
			"type":"VEC2"
		},
		{
			"bufferView":4,
			"componentType":5125,
			"count":154335,
			"type":"SCALAR"
		}
	],
	"bufferViews":[
		{
			"buffer":0,
			"byteLength":975552,
			"byteOffset":0,
			"target":34962
		},
		{
			"buffer":0,
			"byteLength":975552,
			"byteOffset":975552,
			"target":34962
		},
		{
			"buffer":0,
			"byteLength":650368,
			"byteOffset":1951104,
			"target":34962
		},
		{
			"buffer":0,
			"byteLength":650368,
			"byteOffset":2601472,
			"target":34962
		},
		{
			"buffer":0,
			"byteLength":617340,
			"byteOffset":3251840,
			"target":34963
		}
	],
	"samplers":[
		{
			"magFilter":9729,
			"minFilter":9987
		}
	],
	"buffers":[
		{
			"byteLength":3869180,
			"uri":"model.bin"
		}
	]
}
