{
	"asset":{
		"generator":"Khronos glTF Blender I/O v4.3.47",
		"version":"2.0"
	},
	"scene":0,
	"scenes":[
		{
			"name":"Scene",
			"nodes":[
				0
			]
		}
	],
	"nodes":[
		{
			"mesh":0,
			"name":"budynek_bake",
			"rotation":[
				0.7598787546157837,
				0,
				-0.6500648260116577,
				0
			],
			"scale":[
				-1.9444442987442017,
				-0.8333333134651184,
				-1.9444442987442017
			]
		}
	],
	"meshes":[
		{
			"name":"Cube.023",
			"primitives":[
				{
					"attributes":{
						"POSITION":0,
						"NORMAL":1,
						"TEXCOORD_0":2,
						"TEXCOORD_1":3
					},
					"indices":4
				}
			]
		}
	],
	"accessors":[
		{
			"bufferView":0,
			"componentType":5126,
			"count":1927014,
			"max":[
				24.03942108154297,
				17.287385940551758,
				23.333349227905273
			],
			"min":[
				-30.622304916381836,
				-0.7593350410461426,
				-34.47509765625
			],
			"type":"VEC3"
		},
		{
			"bufferView":1,
			"componentType":5126,
			"count":1927014,
			"type":"VEC3"
		},
		{
			"bufferView":2,
			"componentType":5126,
			"count":1927014,
			"type":"VEC2"
		},
		{
			"bufferView":3,
			"componentType":5126,
			"count":1927014,
			"type":"VEC2"
		},
		{
			"bufferView":4,
			"componentType":5125,
			"count":2073780,
			"type":"SCALAR"
		}
	],
	"bufferViews":[
		{
			"buffer":0,
			"byteLength":23124168,
			"byteOffset":0,
			"target":34962
		},
		{
			"buffer":0,
			"byteLength":23124168,
			"byteOffset":23124168,
			"target":34962
		},
		{
			"buffer":0,
			"byteLength":15416112,
			"byteOffset":46248336,
			"target":34962
		},
		{
			"buffer":0,
			"byteLength":15416112,
			"byteOffset":61664448,
			"target":34962
		},
		{
			"buffer":0,
			"byteLength":8295120,
			"byteOffset":77080560,
			"target":34963
		}
	],
	"buffers":[
		{
			"byteLength":85375680,
			"uri":"model.bin"
		}
	]
}
