{
	"asset":{
		"generator":"Khronos glTF Blender I/O v4.3.47",
		"version":"2.0"
	},
	"scene":0,
	"scenes":[
		{
			"name":"Scene",
			"nodes":[
				0
			]
		}
	],
	"nodes":[
		{
			"mesh":0,
			"name":"bake",
			"rotation":[
				0,
				-0.7071068286895752,
				0.7071068286895752,
				1.1520233300643667e-07
			],
			"translation":[
				-8.627017974853516,
				0.6550006866455078,
				-20.060016632080078
			]
		}
	],
	"materials":[
		{
			"doubleSided":true,
			"name":"bake",
			"pbrMetallicRoughness":{
				"baseColorTexture":{
					"index":0
				},
				"metallicFactor":0,
				"roughnessFactor":0.5
			}
		}
	],
	"meshes":[
		{
			"name":"Plane.046",
			"primitives":[
				{
					"attributes":{
						"POSITION":0,
						"NORMAL":1,
						"TEXCOORD_0":2,
						"TEXCOORD_1":3
					},
					"indices":4,
					"material":0
				}
			]
		}
	],
	"textures":[
		{
			"sampler":0,
			"source":0
		}
	],
	"images":[
		{
			"mimeType":"image/png",
			"name":"combined 3",
			"uri":"combined%203.png"
		}
	],
	"accessors":[
		{
			"bufferView":0,
			"componentType":5126,
			"count":12804,
			"max":[
				23.918928146362305,
				1.6258411407470703,
				1.905001163482666
			],
			"min":[
				-34.85053634643555,
				-13.210010528564453,
				-8.336732864379883
			],
			"type":"VEC3"
		},
		{
			"bufferView":1,
			"componentType":5126,
			"count":12804,
			"type":"VEC3"
		},
		{
			"bufferView":2,
			"componentType":5126,
			"count":12804,
			"type":"VEC2"
		},
		{
			"bufferView":3,
			"componentType":5126,
			"count":12804,
			"type":"VEC2"
		},
		{
			"bufferView":4,
			"componentType":5123,
			"count":23142,
			"type":"SCALAR"
		}
	],
	"bufferViews":[
		{
			"buffer":0,
			"byteLength":153648,
			"byteOffset":0,
			"target":34962
		},
		{
			"buffer":0,
			"byteLength":153648,
			"byteOffset":153648,
			"target":34962
		},
		{
			"buffer":0,
			"byteLength":102432,
			"byteOffset":307296,
			"target":34962
		},
		{
			"buffer":0,
			"byteLength":102432,
			"byteOffset":409728,
			"target":34962
		},
		{
			"buffer":0,
			"byteLength":46284,
			"byteOffset":512160,
			"target":34963
		}
	],
	"samplers":[
		{
			"magFilter":9729,
			"minFilter":9987
		}
	],
	"buffers":[
		{
			"byteLength":558444,
			"uri":"model.bin"
		}
	]
}
