{
	"asset":{
		"generator":"Khronos glTF Blender I/O v4.3.47",
		"version":"2.0"
	},
	"scene":0,
	"scenes":[
		{
			"name":"Scene",
			"nodes":[
				0,
				1
			]
		}
	],
	"nodes":[
		{
			"mesh":0,
			"name":"bud",
			"rotation":[
				0,
				-0.07317981868982315,
				0,
				0.9973187446594238
			],
			"translation":[
				100.08236694335938,
				0.09000015258789062,
				16.030033111572266
			]
		},
		{
			"mesh":1,
			"name":"ter",
			"rotation":[
				0,
				-0.07317981868982315,
				0,
				0.9973187446594238
			],
			"translation":[
				100.08236694335938,
				0.09000015258789062,
				16.030033111572266
			]
		}
	],
	"materials":[
		{
			"doubleSided":true,
			"name":"bake.003",
			"pbrMetallicRoughness":{
				"baseColorTexture":{
					"index":0
				},
				"metallicFactor":0,
				"roughnessFactor":0.5
			}
		},
		{
			"doubleSided":true,
			"name":"bake.001",
			"pbrMetallicRoughness":{
				"baseColorTexture":{
					"index":1
				},
				"metallicFactor":0,
				"roughnessFactor":0.5
			}
		}
	],
	"meshes":[
		{
			"name":"Cube.359",
			"primitives":[
				{
					"attributes":{
						"POSITION":0,
						"NORMAL":1,
						"TEXCOORD_0":2,
						"TEXCOORD_1":3
					},
					"indices":4,
					"material":0
				}
			]
		},
		{
			"name":"Cube.001",
			"primitives":[
				{
					"attributes":{
						"POSITION":5,
						"NORMAL":6,
						"TEXCOORD_0":7,
						"TEXCOORD_1":8
					},
					"indices":9,
					"material":1
				}
			]
		}
	],
	"textures":[
		{
			"sampler":0,
			"source":0
		},
		{
			"sampler":0,
			"source":1
		}
	],
	"images":[
		{
			"mimeType":"image/png",
			"name":"bake_2048_b",
			"uri":"bake_2048_b.png"
		},
		{
			"mimeType":"image/png",
			"name":"bake_1024_t",
			"uri":"bake_1024_t.png"
		}
	],
	"accessors":[
		{
			"bufferView":0,
			"componentType":5126,
			"count":77575,
			"max":[
				41.60259246826172,
				13.746286392211914,
				4.201000213623047
			],
			"min":[
				-17.421424865722656,
				-1.3400003910064697,
				-48.26466751098633
			],
			"type":"VEC3"
		},
		{
			"bufferView":1,
			"componentType":5126,
			"count":77575,
			"type":"VEC3"
		},
		{
			"bufferView":2,
			"componentType":5126,
			"count":77575,
			"type":"VEC2"
		},
		{
			"bufferView":3,
			"componentType":5126,
			"count":77575,
			"type":"VEC2"
		},
		{
			"bufferView":4,
			"componentType":5125,
			"count":146835,
			"type":"SCALAR"
		},
		{
			"bufferView":5,
			"componentType":5126,
			"count":3721,
			"max":[
				59.9099235534668,
				0.015396088361740112,
				31.843414306640625
			],
			"min":[
				-51.60556411743164,
				-0.1100001335144043,
				-71.34513092041016
			],
			"type":"VEC3"
		},
		{
			"bufferView":6,
			"componentType":5126,
			"count":3721,
			"type":"VEC3"
		},
		{
			"bufferView":7,
			"componentType":5126,
			"count":3721,
			"type":"VEC2"
		},
		{
			"bufferView":8,
			"componentType":5126,
			"count":3721,
			"type":"VEC2"
		},
		{
			"bufferView":9,
			"componentType":5123,
			"count":7500,
			"type":"SCALAR"
		}
	],
	"bufferViews":[
		{
			"buffer":0,
			"byteLength":930900,
			"byteOffset":0,
			"target":34962
		},
		{
			"buffer":0,
			"byteLength":930900,
			"byteOffset":930900,
			"target":34962
		},
		{
			"buffer":0,
			"byteLength":620600,
			"byteOffset":1861800,
			"target":34962
		},
		{
			"buffer":0,
			"byteLength":620600,
			"byteOffset":2482400,
			"target":34962
		},
		{
			"buffer":0,
			"byteLength":587340,
			"byteOffset":3103000,
			"target":34963
		},
		{
			"buffer":0,
			"byteLength":44652,
			"byteOffset":3690340,
			"target":34962
		},
		{
			"buffer":0,
			"byteLength":44652,
			"byteOffset":3734992,
			"target":34962
		},
		{
			"buffer":0,
			"byteLength":29768,
			"byteOffset":3779644,
			"target":34962
		},
		{
			"buffer":0,
			"byteLength":29768,
			"byteOffset":3809412,
			"target":34962
		},
		{
			"buffer":0,
			"byteLength":15000,
			"byteOffset":3839180,
			"target":34963
		}
	],
	"samplers":[
		{
			"magFilter":9729,
			"minFilter":9987
		}
	],
	"buffers":[
		{
			"byteLength":3854180,
			"uri":"model.bin"
		}
	]
}
